HIERARCHY
ROOT Hips
{
	OFFSET 0.000000 0.000000 0.000000
	CHANNELS 6 Xposition Yposition Zposition Zrotation Yrotation Xrotation 
	JOINT LHipJoint
	{
		OFFSET 0.000000 0.000000 0.000000
		CHANNELS 3 Zrotation Yrotation Xrotation
		JOINT LeftUpLeg
		{
			OFFSET 1.363060 -1.794630 0.839290
			CHANNELS 3 Zrotation Yrotation Xrotation
			JOINT LeftLeg
			{
				OFFSET 2.448110 -6.726130 0.000000
				CHANNELS 3 Zrotation Yrotation Xrotation
				JOINT LeftFoot
				{
					OFFSET 2.562200 -7.039590 0.000000
					CHANNELS 3 Zrotation Yrotation Xrotation
					JOINT LeftToeBase
					{
						OFFSET 0.157640 -0.433110 2.322550
						CHANNELS 3 Zrotation Yrotation Xrotation
						End Site
						{
							OFFSET 0.000000 0.000000 0.000000
						}
					}
				}
			}
		}
	}
	JOINT RHipJoint
	{
		OFFSET 0.000000 0.000000 0.000000
		CHANNELS 3 Zrotation Yrotation Xrotation
		JOINT RightUpLeg
		{
			OFFSET -1.305520 -1.794630 0.839290
			CHANNELS 3 Zrotation Yrotation Xrotation
			JOINT RightLeg
			{
				OFFSET -2.542530 -6.985550 0.000000
				CHANNELS 3 Zrotation Yrotation Xrotation
				JOINT RightFoot
				{
					OFFSET -2.568260 -7.056230 0.000000
					CHANNELS 3 Zrotation Yrotation Xrotation
					JOINT RightToeBase
					{
						OFFSET -0.164730 -0.452590 2.363150
						CHANNELS 3 Zrotation Yrotation Xrotation
						End Site
						{
							OFFSET 0.000000 0.000000 0.000000
						}
					}
				}
			}
		}
	}
}
MOTION
Frames: 22
Frame Time: 0.008333
3.682614 16.687787 -2.533642 121.612724 -78.896549 -137.330723 -6.352426 -5.900086 1.137153 -20.438516 11.582814 -87.142944 -3.915343 -1.539844 0.422621 1.613010 11.425281 6.421869 3.851000 -0.000000 -41.707200 11.008167 0.258727 -5.151994 2.752052 -6.446872 9.068415 0.446984 -2.922568 29.726034 -3.472382 -15.326896 -15.410321 1.521600 -0.000000 -52.851400
3.678446 16.672687 -2.532202 120.887927 -78.818542 -137.001273 -6.473192 -5.762526 0.894525 -19.840379 11.793776 -86.419207 -3.748298 -0.973506 4.331649 1.557449 11.210274 7.491943 3.923000 0.000000 -40.543399 11.083883 0.217108 -5.095098 2.339071 -6.753254 9.240687 0.439369 -2.936988 29.961592 -3.411519 -15.027753 -15.593746 1.559100 0.000000 -53.021400
3.675996 16.656711 -2.533145 119.758752 -78.764927 -136.367088 -6.551304 -5.625631 0.547420 -19.756709 12.064917 -85.526643 -3.593936 -0.466102 7.921365 1.443606 10.692730 8.659287 3.885100 -0.000000 -38.359800 11.183643 0.172922 -5.056530 1.835669 -7.140802 9.543938 0.428560 -2.955401 30.140248 -3.346513 -14.713924 -15.753151 1.585400 0.000000 -53.226400
3.675065 16.641097 -2.535694 118.362290 -78.752982 -135.501958 -6.608837 -5.496146 0.161438 -19.952099 12.370562 -84.406126 -3.435889 -0.055803 10.977718 1.334465 10.178598 9.772592 3.811800 -0.000001 -35.768100 11.291574 0.127812 -5.036279 1.309554 -7.577586 9.926633 0.416542 -2.973815 30.251825 -3.284358 -14.417947 -15.881079 1.601200 -0.000001 -53.431100
3.675474 16.626946 -2.539279 116.777122 -78.799508 -134.431483 -6.659817 -5.370590 -0.216264 -20.299386 12.675368 -83.091819 -3.277081 0.250663 13.462905 1.264831 9.863025 10.712505 3.764600 0.000000 -33.527200 11.398435 0.080714 -5.030211 0.809315 -8.047746 10.333328 0.405357 -2.988560 30.294389 -3.228474 -14.156798 -15.973747 1.608000 -0.000000 -53.607700
3.676066 16.615326 -2.541891 115.317752 -78.891068 -133.435510 -6.719055 -5.237084 -0.559868 -20.771636 13.020599 -81.777747 -3.125623 0.483992 15.602916 1.239153 9.753466 11.296205 3.733399 0.000000 -31.903500 11.476552 0.028571 -5.018220 0.427231 -8.471290 10.728391 0.396400 -2.995448 30.267572 -3.188219 -13.973140 -16.028348 1.609800 -0.000000 -53.731300
3.677230 16.606721 -2.544189 113.880504 -79.028133 -132.397444 -6.781281 -5.094720 -0.863181 -21.324354 13.384703 -80.452117 -2.982863 0.653070 17.421176 1.266050 9.963718 11.540303 3.771200 0.000000 -31.262399 11.538327 -0.029248 -4.999394 0.131129 -8.876181 11.080753 0.389674 -2.994212 30.181216 -3.157347 -13.839894 -16.045534 1.605601 0.000000 -53.802700
3.678322 16.601517 -2.545225 112.642891 -79.184231 -131.494827 -6.848337 -4.938943 -1.130607 -21.960583 13.823363 -79.211820 -2.849217 0.784045 19.091984 1.338744 10.456654 11.407993 3.857000 0.000000 -31.464200 11.573367 -0.093417 -4.961102 -0.056015 -9.217983 11.384342 0.384841 -2.984125 30.041290 -3.137679 -13.764269 -16.025775 1.596600 0.000000 -53.821800
3.679188 16.599771 -2.545507 111.591729 -79.336705 -130.720950 -6.913957 -4.770396 -1.371614 -22.660485 14.354618 -78.039444 -2.722062 0.887122 20.657528 1.455433 11.243473 10.979624 3.996400 -0.000000 -32.456200 11.593052 -0.162487 -4.900709 -0.175031 -9.501774 11.634504 0.380409 -2.966496 29.861996 -3.123769 -13.720648 -15.972209 1.581800 0.000000 -53.811700
3.679037 16.601196 -2.544092 110.938539 -79.455191 -130.304008 -6.981775 -4.589733 -1.599197 -23.419203 15.050163 -76.994739 -2.599480 0.981524 22.251094 1.603942 12.220514 10.270380 4.136500 -0.000000 -33.717600 11.585473 -0.235120 -4.811709 -0.211881 -9.684178 11.852051 0.376141 -2.942403 29.647455 -3.116866 -13.711199 -15.887938 1.561700 0.000000 -53.772900
3.677790 16.605245 -2.541330 110.686176 -79.523773 -130.261243 -7.050411 -4.401524 -1.821910 -24.192773 15.919341 -76.030155 -2.479017 1.070479 23.863625 1.776832 13.349031 9.396008 4.267000 0.000000 -34.931900 11.558791 -0.308315 -4.697972 -0.200732 -9.772517 12.048546 0.371238 -2.913984 29.408065 -3.112698 -13.714273 -15.778429 1.535900 -0.000001 -53.723600
3.675601 16.611341 -2.537885 110.764006 -79.538989 -130.529124 -7.119919 -4.211974 -2.041510 -24.910132 16.931660 -75.060718 -2.358400 1.150991 25.430724 1.967110 14.607439 8.496290 4.397100 -0.000000 -35.851500 11.524455 -0.378592 -4.568654 -0.177471 -9.789429 12.231967 0.365283 -2.883345 29.153648 -3.106982 -13.708579 -15.650131 1.504000 -0.000001 -53.683200
3.672582 16.618724 -2.534101 111.107827 -79.502741 -131.051136 -7.192621 -4.025481 -2.257819 -25.513443 18.053099 -74.027575 -2.237740 1.222405 26.916423 2.162764 15.938230 7.669689 4.526800 -0.000001 -36.201200 11.489939 -0.443557 -4.432393 -0.164349 -9.756185 12.409900 0.358471 -2.852092 28.891504 -3.096586 -13.678218 -15.509443 1.466600 0.000000 -53.661901
3.668283 16.626889 -2.529757 111.720298 -79.425253 -131.828821 -7.275139 -3.844061 -2.466914 -25.958126 19.254523 -72.917103 -2.119198 1.288625 28.325759 2.348134 17.245329 6.964066 4.644100 -0.000000 -35.766499 11.451207 -0.503193 -4.293776 -0.148311 -9.677964 12.588701 0.352400 -2.820641 28.622919 -3.082371 -13.625004 -15.364268 1.425900 -0.000000 -53.649301
3.663098 16.635246 -2.525390 112.458636 -79.327341 -132.717093 -7.369876 -3.670337 -2.663328 -26.199928 20.466229 -71.670104 -2.003674 1.346250 29.605661 2.515170 18.494087 6.446679 4.769400 0.000000 -34.699300 11.415635 -0.557138 -4.162470 -0.142018 -9.590241 12.765912 0.348045 -2.789698 28.350601 -3.062429 -13.540292 -15.219886 1.383101 0.000000 -53.649200
3.656985 16.643391 -2.521049 113.254970 -79.230225 -133.644816 -7.480593 -3.504112 -2.842616 -26.223620 21.640012 -70.280100 -1.893163 1.397621 30.765597 2.655234 19.619906 6.114428 4.898299 -0.000000 -33.135100 11.381596 -0.606809 -4.042604 -0.134664 -9.511161 12.939703 0.346910 -2.759019 28.072410 -3.037657 -13.428194 -15.080921 1.340000 0.000000 -53.649000
3.650569 16.651173 -2.517333 113.952397 -79.159247 -134.448689 -7.607576 -3.346926 -3.000152 -26.014685 22.700194 -68.702996 -1.786365 1.438862 31.767557 2.770555 20.635367 5.989394 5.056800 -0.000000 -31.534100 11.355587 -0.652916 -3.941900 -0.137169 -9.476092 13.102785 0.349460 -2.728897 27.787782 -3.007285 -13.287145 -14.947355 1.296800 -0.000000 -53.660400
3.643126 16.658555 -2.513623 114.616782 -79.126183 -135.191600 -7.752981 -3.194789 -3.135437 -25.605760 23.650546 -67.014349 -1.686524 1.479815 32.710571 2.855256 21.456875 5.959435 5.193600 0.000000 -29.804700 11.324951 -0.698481 -3.855482 -0.113356 -9.474037 13.258730 0.357203 -2.697708 27.487134 -2.975325 -13.135245 -14.820755 1.255400 0.000000 -53.653300
3.635252 16.665618 -2.510382 115.128568 -79.145868 -135.750999 -7.913691 -3.048237 -3.246621 -25.010507 24.439416 -65.195256 -1.590625 1.517001 33.578244 2.917812 22.132309 6.021850 5.327200 0.000000 -28.399500 11.296085 -0.744163 -3.786347 -0.076715 -9.526845 13.399141 0.369528 -2.665548 27.170225 -2.941460 -12.973803 -14.697812 1.215000 -0.000000 -53.642900
3.626805 16.672683 -2.507384 115.496796 -79.221194 -136.132986 -8.087312 -2.905429 -3.333816 -24.262529 25.062531 -63.283489 -1.497513 1.553002 34.410852 2.962826 22.671967 6.130529 5.446800 -0.000000 -27.519000 11.265851 -0.791371 -3.730489 -0.017027 -9.626867 13.521941 0.386067 -2.631662 26.833005 -2.908031 -12.815155 -14.575183 1.175600 0.000000 -53.626900
3.617058 16.679845 -2.504055 115.804320 -79.345102 -136.425333 -8.271217 -2.762269 -3.401619 -23.405597 25.557834 -61.347705 -1.410065 1.595150 35.297430 2.988812 23.035776 6.158772 5.492700 -0.000000 -26.694500 11.227046 -0.841305 -3.681896 0.081614 -9.755196 13.636833 0.406687 -2.595073 26.467983 -2.877153 -12.669046 -14.450007 1.137100 0.000000 -53.590100
3.606267 16.687554 -2.500391 116.022441 -79.511712 -136.597590 -8.461464 -2.618799 -3.449924 -22.463146 25.915839 -59.383113 -1.324468 1.639647 36.208981 3.004812 23.294323 6.147966 5.500000 -0.000000 -26.332300 11.183903 -0.893736 -3.637633 0.210865 -9.903359 13.737586 0.429797 -2.556025 26.077471 -2.849970 -12.543116 -14.317763 1.098700 0.000001 -53.552900
